<svg width="567" height="334" xmlns="http://www.w3.org/2000/svg" xmlns:xlink="http://www.w3.org/1999/xlink" stroke="#000000" stroke-linecap="square" stroke-miterlimit="10" font-family="Dialog" font-weight="400" font-size="12" overflow="hidden"><defs id="genericDefs"></defs><g><defs id="defs1"><clipPath id="clipPath1"><path d="M0 0 567 0 567 334 0 334 0 0Z"/></clipPath><clipPath id="clipPath2"><path d="M505 262 1072 262 1072 596 505 596 505 262Z"/></clipPath><clipPath id="clipPath3"><path d="M661 264 661 292 761 292 761 264Z"/></clipPath><clipPath id="clipPath4"><path d="M590 328 590 356 690 356 690 328Z"/></clipPath><clipPath id="clipPath5"><path d="M729 328 729 356 829 356 829 328Z"/></clipPath><clipPath id="clipPath6"><path d="M729 386 729 428 829 428 829 386Z"/></clipPath><clipPath id="clipPath7"><path d="M507 410 507 452 607 452 607 410Z"/></clipPath><clipPath id="clipPath8"><path d="M534 468 534 510 634 510 634 468Z"/></clipPath><clipPath id="clipPath9"><path d="M651 468 651 510 769 510 769 468Z"/></clipPath><clipPath id="clipPath10"><path d="M651 550 651 592 769 592 769 550Z"/></clipPath><clipPath id="clipPath11"><path d="M788 468 788 510 906 510 906 468Z"/></clipPath><clipPath id="clipPath12"><path d="M924 468 924 510 1042 510 1042 468Z"/></clipPath><clipPath id="clipPath13"><path d="M950 410 950 452 1068 452 1068 410Z"/></clipPath><clipPath id="clipPath14"><path d="M788 550 788 592 906 592 906 550Z"/></clipPath></defs><g stroke="#FFFFFF" fill="#FFFFFF" transform="translate(-505 -262)"><rect x="505" y="262" width="567" height="334" stroke="none" clip-path="url(#clipPath2)"/></g><g stroke="#FFCC00" fill="#FFCC00" transform="translate(-505 -262)"><rect x="662" y="265" width="98" height="26" stroke="none" clip-path="url(#clipPath2)"/><rect x="661" y="264" width="1" height="28" stroke="none" fill="#FFFF00" clip-path="url(#clipPath2)"/><rect x="662" y="264" width="98" height="1" stroke="none" fill="#FFFF00" clip-path="url(#clipPath2)"/><rect x="662" y="291" width="99" height="1" stroke="none" fill="#B28E00" clip-path="url(#clipPath2)"/><rect x="760" y="264" width="1" height="27" stroke="none" fill="#B28E00" clip-path="url(#clipPath2)"/></g><g stroke-linecap="butt" stroke-miterlimit="1.45" font-family="Arial" font-weight="700" font-size="13" transform="translate(-505 -262)"><text stroke="none" xml:space="preserve" clip-path="url(#clipPath3)" x="678.655" y="282.07">Throwable</text></g><g stroke="#FFCC00" fill="#FFCC00" transform="translate(-505 -262)"><rect x="591" y="329" width="98" height="26" stroke="none" clip-path="url(#clipPath2)"/><rect x="590" y="328" width="1" height="28" stroke="none" fill="#FFFF00" clip-path="url(#clipPath2)"/><rect x="591" y="328" width="98" height="1" stroke="none" fill="#FFFF00" clip-path="url(#clipPath2)"/><rect x="591" y="355" width="99" height="1" stroke="none" fill="#B28E00" clip-path="url(#clipPath2)"/><rect x="689" y="328" width="1" height="27" stroke="none" fill="#B28E00" clip-path="url(#clipPath2)"/></g><g stroke-linecap="butt" stroke-miterlimit="1.45" font-family="Arial" font-weight="700" font-size="13" transform="translate(-505 -262)"><text stroke="none" xml:space="preserve" clip-path="url(#clipPath4)" x="624.106" y="346.07">Error</text></g><g stroke="#FFCC00" fill="#FFCC00" transform="translate(-505 -262)"><rect x="730" y="329" width="98" height="26" stroke="none" clip-path="url(#clipPath2)"/><rect x="729" y="328" width="1" height="28" stroke="none" fill="#FFFF00" clip-path="url(#clipPath2)"/><rect x="730" y="328" width="98" height="1" stroke="none" fill="#FFFF00" clip-path="url(#clipPath2)"/><rect x="730" y="355" width="99" height="1" stroke="none" fill="#B28E00" clip-path="url(#clipPath2)"/><rect x="828" y="328" width="1" height="27" stroke="none" fill="#B28E00" clip-path="url(#clipPath2)"/></g><g stroke-linecap="butt" stroke-miterlimit="1.45" font-family="Arial" font-weight="700" font-size="13" transform="translate(-505 -262)"><text stroke="none" xml:space="preserve" clip-path="url(#clipPath5)" x="748.232" y="346.07">Exception</text></g><g stroke="#FF9900" fill="#FF9900" transform="translate(-505 -262)"><rect x="730" y="387" width="98" height="40" stroke="none" clip-path="url(#clipPath2)"/><rect x="729" y="386" width="1" height="42" stroke="none" fill="#FFDA00" clip-path="url(#clipPath2)"/><rect x="730" y="386" width="98" height="1" stroke="none" fill="#FFDA00" clip-path="url(#clipPath2)"/><rect x="730" y="427" width="99" height="1" stroke="none" fill="#B26B00" clip-path="url(#clipPath2)"/><rect x="828" y="386" width="1" height="41" stroke="none" fill="#B26B00" clip-path="url(#clipPath2)"/></g><g stroke-linecap="butt" stroke-miterlimit="1.45" font-family="Arial" font-weight="700" font-size="13" transform="translate(-505 -262)"><text stroke="none" xml:space="preserve" clip-path="url(#clipPath6)" x="751.13" y="404.07">Runtime-</text><text stroke="none" xml:space="preserve" clip-path="url(#clipPath6)" x="748.232" y="419.996">Exception</text></g><g stroke="#FF9900" fill="#FF9900" transform="translate(-505 -262)"><rect x="508" y="411" width="98" height="40" stroke="none" clip-path="url(#clipPath2)"/><rect x="507" y="410" width="1" height="42" stroke="none" fill="#FFDA00" clip-path="url(#clipPath2)"/><rect x="508" y="410" width="98" height="1" stroke="none" fill="#FFDA00" clip-path="url(#clipPath2)"/><rect x="508" y="451" width="99" height="1" stroke="none" fill="#B26B00" clip-path="url(#clipPath2)"/><rect x="606" y="410" width="1" height="41" stroke="none" fill="#B26B00" clip-path="url(#clipPath2)"/></g><g stroke-linecap="butt" stroke-miterlimit="1.45" font-family="Arial" font-weight="700" font-size="13" transform="translate(-505 -262)"><text stroke="none" xml:space="preserve" clip-path="url(#clipPath7)" x="523.411" y="428.926">Arithmetic-</text><text stroke="none" xml:space="preserve" clip-path="url(#clipPath7)" x="526.658" y="444.852">Exception</text></g><g stroke="#FF9900" fill="#FF9900" transform="translate(-505 -262)"><rect x="535" y="469" width="98" height="40" stroke="none" clip-path="url(#clipPath2)"/><rect x="534" y="468" width="1" height="42" stroke="none" fill="#FFDA00" clip-path="url(#clipPath2)"/><rect x="535" y="468" width="98" height="1" stroke="none" fill="#FFDA00" clip-path="url(#clipPath2)"/><rect x="535" y="509" width="99" height="1" stroke="none" fill="#B26B00" clip-path="url(#clipPath2)"/><rect x="633" y="468" width="1" height="41" stroke="none" fill="#B26B00" clip-path="url(#clipPath2)"/></g><g stroke-linecap="butt" stroke-miterlimit="1.45" font-family="Arial" font-weight="700" font-size="13" transform="translate(-505 -262)"><text stroke="none" xml:space="preserve" clip-path="url(#clipPath8)" x="550.504" y="486.311">ClassCast-</text><text stroke="none" xml:space="preserve" clip-path="url(#clipPath8)" x="553.04" y="502.238">Exception</text></g><g stroke="#FF9900" fill="#FF9900" transform="translate(-505 -262)"><rect x="652" y="469" width="116" height="40" stroke="none" clip-path="url(#clipPath2)"/><rect x="651" y="468" width="1" height="42" stroke="none" fill="#FFDA00" clip-path="url(#clipPath2)"/><rect x="652" y="468" width="116" height="1" stroke="none" fill="#FFDA00" clip-path="url(#clipPath2)"/><rect x="652" y="509" width="117" height="1" stroke="none" fill="#B26B00" clip-path="url(#clipPath2)"/><rect x="768" y="468" width="1" height="41" stroke="none" fill="#B26B00" clip-path="url(#clipPath2)"/></g><g stroke-linecap="butt" stroke-miterlimit="1.45" font-family="Arial" font-weight="700" font-size="13" transform="translate(-505 -262)"><text stroke="none" xml:space="preserve" clip-path="url(#clipPath9)" x="659.875" y="486.311">IllegalArgument-</text><text stroke="none" xml:space="preserve" clip-path="url(#clipPath9)" x="680.096" y="502.238">Exception</text></g><g stroke="#FF9900" fill="#FF9900" transform="translate(-505 -262)"><rect x="652" y="551" width="116" height="40" stroke="none" clip-path="url(#clipPath2)"/><rect x="651" y="550" width="1" height="42" stroke="none" fill="#FFDA00" clip-path="url(#clipPath2)"/><rect x="652" y="550" width="116" height="1" stroke="none" fill="#FFDA00" clip-path="url(#clipPath2)"/><rect x="652" y="591" width="117" height="1" stroke="none" fill="#B26B00" clip-path="url(#clipPath2)"/><rect x="768" y="550" width="1" height="41" stroke="none" fill="#B26B00" clip-path="url(#clipPath2)"/></g><g stroke-linecap="butt" stroke-miterlimit="1.45" font-family="Arial" font-weight="700" font-size="13" transform="translate(-505 -262)"><text stroke="none" xml:space="preserve" clip-path="url(#clipPath10)" x="662.405" y="568.553">NumberFormat-</text><text stroke="none" xml:space="preserve" clip-path="url(#clipPath10)" x="680.096" y="584.479">Exception</text></g><g stroke="#FF9900" fill="#FF9900" transform="translate(-505 -262)"><rect x="789" y="469" width="116" height="40" stroke="none" clip-path="url(#clipPath2)"/><rect x="788" y="468" width="1" height="42" stroke="none" fill="#FFDA00" clip-path="url(#clipPath2)"/><rect x="789" y="468" width="116" height="1" stroke="none" fill="#FFDA00" clip-path="url(#clipPath2)"/><rect x="789" y="509" width="117" height="1" stroke="none" fill="#B26B00" clip-path="url(#clipPath2)"/><rect x="905" y="468" width="1" height="41" stroke="none" fill="#B26B00" clip-path="url(#clipPath2)"/></g><g stroke-linecap="butt" stroke-miterlimit="1.45" font-family="Arial" font-weight="700" font-size="13" transform="translate(-505 -262)"><text stroke="none" xml:space="preserve" clip-path="url(#clipPath11)" x="809.877" y="486.311">IndexOutOf-</text><text stroke="none" xml:space="preserve" clip-path="url(#clipPath11)" x="792.177" y="502.238">BoundsException</text></g><g stroke="#FF9900" fill="#FF9900" transform="translate(-505 -262)"><rect x="925" y="469" width="116" height="40" stroke="none" clip-path="url(#clipPath2)"/><rect x="924" y="468" width="1" height="42" stroke="none" fill="#FFDA00" clip-path="url(#clipPath2)"/><rect x="925" y="468" width="116" height="1" stroke="none" fill="#FFDA00" clip-path="url(#clipPath2)"/><rect x="925" y="509" width="117" height="1" stroke="none" fill="#B26B00" clip-path="url(#clipPath2)"/><rect x="1041" y="468" width="1" height="41" stroke="none" fill="#B26B00" clip-path="url(#clipPath2)"/></g><g stroke-linecap="butt" stroke-miterlimit="1.45" font-family="Arial" font-weight="700" font-size="13" transform="translate(-505 -262)"><text stroke="none" xml:space="preserve" clip-path="url(#clipPath12)" x="947.219" y="486.311">IllegalState-</text><text stroke="none" xml:space="preserve" clip-path="url(#clipPath12)" x="952.64" y="502.238">Exception</text></g><g stroke="#FF9900" fill="#FF9900" transform="translate(-505 -262)"><rect x="951" y="411" width="116" height="40" stroke="none" clip-path="url(#clipPath2)"/><rect x="950" y="410" width="1" height="42" stroke="none" fill="#FFDA00" clip-path="url(#clipPath2)"/><rect x="951" y="410" width="116" height="1" stroke="none" fill="#FFDA00" clip-path="url(#clipPath2)"/><rect x="951" y="451" width="117" height="1" stroke="none" fill="#B26B00" clip-path="url(#clipPath2)"/><rect x="1067" y="410" width="1" height="41" stroke="none" fill="#B26B00" clip-path="url(#clipPath2)"/></g><g stroke-linecap="butt" stroke-miterlimit="1.45" font-family="Arial" font-weight="700" font-size="13" transform="translate(-505 -262)"><text stroke="none" xml:space="preserve" clip-path="url(#clipPath13)" x="973.617" y="428.926">Nullpointer-</text><text stroke="none" xml:space="preserve" clip-path="url(#clipPath13)" x="979.022" y="444.852">Exception</text></g><g stroke="#FF9900" fill="#FF9900" transform="translate(-505 -262)"><rect x="789" y="551" width="116" height="40" stroke="none" clip-path="url(#clipPath2)"/><rect x="788" y="550" width="1" height="42" stroke="none" fill="#FFDA00" clip-path="url(#clipPath2)"/><rect x="789" y="550" width="116" height="1" stroke="none" fill="#FFDA00" clip-path="url(#clipPath2)"/><rect x="789" y="591" width="117" height="1" stroke="none" fill="#B26B00" clip-path="url(#clipPath2)"/><rect x="905" y="550" width="1" height="41" stroke="none" fill="#B26B00" clip-path="url(#clipPath2)"/></g><g stroke-linecap="butt" stroke-miterlimit="1.45" font-family="Arial" font-weight="700" font-size="13" transform="translate(-505 -262)"><text stroke="none" xml:space="preserve" clip-path="url(#clipPath14)" x="792.894" y="568.553">ArrayIndexOutOf-</text><text stroke="none" xml:space="preserve" clip-path="url(#clipPath14)" x="792.177" y="584.479">BoundsException</text><path d="M655.601 327.969 684.461 302.011" fill="none" clip-path="url(#clipPath2)"/></g><g stroke="#FFFFFF" stroke-linecap="butt" stroke-miterlimit="1.45" fill="#FFFFFF" transform="translate(-505 -262)"><path d="M695.614 291.98 679.705 298.219 687.73 307.141Z" stroke="none" clip-path="url(#clipPath2)"/><path d="M695.614 291.98 679.705 298.219 687.73 307.141Z" stroke="#000000" fill="none" clip-path="url(#clipPath2)"/><path d="M764.356 327.969 736.976 302.25" stroke="#000000" fill="none" clip-path="url(#clipPath2)"/><path d="M726.042 291.98 733.597 307.308 741.812 298.561Z" stroke="none" clip-path="url(#clipPath2)"/><path d="M726.042 291.98 733.597 307.308 741.812 298.561Z" stroke="#000000" fill="none" clip-path="url(#clipPath2)"/><path d="M779.294 386.018 779.294 370.971" stroke="#000000" fill="none" clip-path="url(#clipPath2)"/><path d="M779.294 355.971 773.294 371.971 785.294 371.971Z" stroke="none" clip-path="url(#clipPath2)"/><path d="M779.294 355.971 773.294 371.971 785.294 371.971Z" stroke="#000000" fill="none" clip-path="url(#clipPath2)"/><path d="M607.731 426.619 714.418 414.651" stroke="#000000" fill="none" clip-path="url(#clipPath2)"/><path d="M729.325 412.978 712.756 408.799 714.093 420.725Z" stroke="none" clip-path="url(#clipPath2)"/><path d="M729.325 412.978 712.756 408.799 714.093 420.725Z" stroke="#000000" fill="none" clip-path="url(#clipPath2)"/><path d="M634.115 468.542 715.459 434.269" stroke="#000000" fill="none" clip-path="url(#clipPath2)"/><path d="M729.283 428.444 712.208 429.128 716.868 440.186Z" stroke="none" clip-path="url(#clipPath2)"/><path d="M729.283 428.444 712.208 429.128 716.868 440.186Z" stroke="#000000" fill="none" clip-path="url(#clipPath2)"/><path d="M728.874 468.231 752.023 440.289" stroke="#000000" fill="none" clip-path="url(#clipPath2)"/><path d="M761.593 428.738 746.765 437.231 756.006 444.887Z" stroke="none" clip-path="url(#clipPath2)"/><path d="M761.593 428.738 746.765 437.231 756.006 444.887Z" stroke="#000000" fill="none" clip-path="url(#clipPath2)"/><path d="M711.158 550.452 711.158 525.973" stroke="#000000" fill="none" clip-path="url(#clipPath2)"/><path d="M711.158 510.973 705.158 526.973 717.158 526.973Z" stroke="none" clip-path="url(#clipPath2)"/><path d="M711.158 510.973 705.158 526.973 717.158 526.973Z" stroke="#000000" fill="none" clip-path="url(#clipPath2)"/><path d="M829.714 468.231 806.565 440.289" stroke="#000000" fill="none" clip-path="url(#clipPath2)"/><path d="M796.995 428.738 802.583 444.887 811.823 437.231Z" stroke="none" clip-path="url(#clipPath2)"/><path d="M796.995 428.738 802.583 444.887 811.823 437.231Z" stroke="#000000" fill="none" clip-path="url(#clipPath2)"/><path d="M930.579 468.241 843.183 433.078" stroke="#000000" fill="none" clip-path="url(#clipPath2)"/><path d="M829.267 427.479 841.871 439.017 846.35 427.885Z" stroke="none" clip-path="url(#clipPath2)"/><path d="M829.267 427.479 841.871 439.017 846.35 427.885Z" stroke="#000000" fill="none" clip-path="url(#clipPath2)"/><path d="M950.893 425.854 844.188 414.362" stroke="#000000" fill="none" clip-path="url(#clipPath2)"/><path d="M829.274 412.756 844.54 420.434 845.825 408.503Z" stroke="none" clip-path="url(#clipPath2)"/><path d="M829.274 412.756 844.54 420.434 845.825 408.503Z" stroke="#000000" fill="none" clip-path="url(#clipPath2)"/><path d="M847.43 550.452 847.43 525.973" stroke="#000000" fill="none" clip-path="url(#clipPath2)"/><path d="M847.43 510.973 841.43 526.973 853.43 526.973Z" stroke="none" clip-path="url(#clipPath2)"/><path d="M847.43 510.973 841.43 526.973 853.43 526.973Z" stroke="#000000" fill="none" clip-path="url(#clipPath2)"/></g></g></svg>