<svg width="494" height="254" xmlns="http://www.w3.org/2000/svg" xmlns:xlink="http://www.w3.org/1999/xlink" stroke="#000000" stroke-linecap="square" stroke-miterlimit="10" font-family="Dialog" font-weight="400" font-size="12" overflow="hidden"><defs id="genericDefs"></defs><g><defs id="defs1"><clipPath id="clipPath1"><path d="M0 0 494 0 494 254 0 254 0 0Z"/></clipPath><clipPath id="clipPath2"><path d="M400 262 894 262 894 516 400 516 400 262Z"/></clipPath><clipPath id="clipPath3"><path d="M693 264 693 292 793 292 793 264Z"/></clipPath><clipPath id="clipPath4"><path d="M593 328 593 356 693 356 693 328Z"/></clipPath><clipPath id="clipPath5"><path d="M791 328 791 356 891 356 891 328Z"/></clipPath><clipPath id="clipPath6"><path d="M590 392 590 434 690 434 690 392Z"/></clipPath><clipPath id="clipPath7"><path d="M716 391 716 433 834 433 834 391Z"/></clipPath><clipPath id="clipPath8"><path d="M463 392 463 434 563 434 563 392Z"/></clipPath><clipPath id="clipPath9"><path d="M523 470 523 512 623 512 623 470Z"/></clipPath><clipPath id="clipPath10"><path d="M402 470 402 512 502 512 502 470Z"/></clipPath><clipPath id="clipPath11"><path d="M661 470 661 512 761 512 761 470Z"/></clipPath><clipPath id="clipPath12"><path d="M791 470 791 512 891 512 891 470Z"/></clipPath></defs><g stroke="#FFFFFF" fill="#FFFFFF" transform="translate(-400 -262)"><rect x="400" y="262" width="494" height="254" stroke="none" clip-path="url(#clipPath2)"/></g><g stroke="#FFCC00" fill="#FFCC00" transform="translate(-400 -262)"><rect x="694" y="265" width="98" height="26" stroke="none" clip-path="url(#clipPath2)"/><rect x="693" y="264" width="1" height="28" stroke="none" fill="#FFFF00" clip-path="url(#clipPath2)"/><rect x="694" y="264" width="98" height="1" stroke="none" fill="#FFFF00" clip-path="url(#clipPath2)"/><rect x="694" y="291" width="99" height="1" stroke="none" fill="#B28E00" clip-path="url(#clipPath2)"/><rect x="792" y="264" width="1" height="27" stroke="none" fill="#B28E00" clip-path="url(#clipPath2)"/></g><g stroke-linecap="butt" stroke-miterlimit="1.45" font-family="Arial" font-weight="700" font-size="13" transform="translate(-400 -262)"><text stroke="none" xml:space="preserve" clip-path="url(#clipPath3)" x="710.555" y="282.07">Throwable</text></g><g stroke="#FF9900" fill="#FF9900" transform="translate(-400 -262)"><rect x="594" y="329" width="98" height="26" stroke="none" clip-path="url(#clipPath2)"/><rect x="593" y="328" width="1" height="28" stroke="none" fill="#FFDA00" clip-path="url(#clipPath2)"/><rect x="594" y="328" width="98" height="1" stroke="none" fill="#FFDA00" clip-path="url(#clipPath2)"/><rect x="594" y="355" width="99" height="1" stroke="none" fill="#B26B00" clip-path="url(#clipPath2)"/><rect x="692" y="328" width="1" height="27" stroke="none" fill="#B26B00" clip-path="url(#clipPath2)"/></g><g stroke-linecap="butt" stroke-miterlimit="1.45" font-family="Arial" font-weight="700" font-size="13" transform="translate(-400 -262)"><text stroke="none" xml:space="preserve" clip-path="url(#clipPath4)" x="627.163" y="346.07">Error</text></g><g stroke="#FFCC00" fill="#FFCC00" transform="translate(-400 -262)"><rect x="792" y="329" width="98" height="26" stroke="none" clip-path="url(#clipPath2)"/><rect x="791" y="328" width="1" height="28" stroke="none" fill="#FFFF00" clip-path="url(#clipPath2)"/><rect x="792" y="328" width="98" height="1" stroke="none" fill="#FFFF00" clip-path="url(#clipPath2)"/><rect x="792" y="355" width="99" height="1" stroke="none" fill="#B28E00" clip-path="url(#clipPath2)"/><rect x="890" y="328" width="1" height="27" stroke="none" fill="#B28E00" clip-path="url(#clipPath2)"/></g><g stroke-linecap="butt" stroke-miterlimit="1.45" font-family="Arial" font-weight="700" font-size="13" transform="translate(-400 -262)"><text stroke="none" xml:space="preserve" clip-path="url(#clipPath5)" x="810.096" y="346.07">Exception</text></g><g stroke="#FF9900" fill="#FF9900" transform="translate(-400 -262)"><rect x="591" y="393" width="98" height="40" stroke="none" clip-path="url(#clipPath2)"/><rect x="590" y="392" width="1" height="42" stroke="none" fill="#FFDA00" clip-path="url(#clipPath2)"/><rect x="591" y="392" width="98" height="1" stroke="none" fill="#FFDA00" clip-path="url(#clipPath2)"/><rect x="591" y="433" width="99" height="1" stroke="none" fill="#B26B00" clip-path="url(#clipPath2)"/><rect x="689" y="392" width="1" height="41" stroke="none" fill="#B26B00" clip-path="url(#clipPath2)"/></g><g stroke-linecap="butt" stroke-miterlimit="1.45" font-family="Arial" font-weight="700" font-size="13" transform="translate(-400 -262)"><text stroke="none" xml:space="preserve" clip-path="url(#clipPath6)" x="617.244" y="410.07">IOError</text></g><g stroke="#FF9900" fill="#FF9900" transform="translate(-400 -262)"><rect x="717" y="392" width="116" height="40" stroke="none" clip-path="url(#clipPath2)"/><rect x="716" y="391" width="1" height="42" stroke="none" fill="#FFDA00" clip-path="url(#clipPath2)"/><rect x="717" y="391" width="116" height="1" stroke="none" fill="#FFDA00" clip-path="url(#clipPath2)"/><rect x="717" y="432" width="117" height="1" stroke="none" fill="#B26B00" clip-path="url(#clipPath2)"/><rect x="833" y="391" width="1" height="41" stroke="none" fill="#B26B00" clip-path="url(#clipPath2)"/></g><g stroke-linecap="butt" stroke-miterlimit="1.45" font-family="Arial" font-weight="700" font-size="13" transform="translate(-400 -262)"><text stroke="none" xml:space="preserve" clip-path="url(#clipPath7)" x="735.702" y="410.07">LinkageError</text></g><g stroke="#FF9900" fill="#FF9900" transform="translate(-400 -262)"><rect x="464" y="393" width="98" height="40" stroke="none" clip-path="url(#clipPath2)"/><rect x="463" y="392" width="1" height="42" stroke="none" fill="#FFDA00" clip-path="url(#clipPath2)"/><rect x="464" y="392" width="98" height="1" stroke="none" fill="#FFDA00" clip-path="url(#clipPath2)"/><rect x="464" y="433" width="99" height="1" stroke="none" fill="#B26B00" clip-path="url(#clipPath2)"/><rect x="562" y="392" width="1" height="41" stroke="none" fill="#B26B00" clip-path="url(#clipPath2)"/></g><g stroke-linecap="butt" stroke-miterlimit="1.45" font-family="Arial" font-weight="700" font-size="13" transform="translate(-400 -262)"><text stroke="none" xml:space="preserve" clip-path="url(#clipPath8)" x="464.66" y="410.07">VirtualMachine-</text><text stroke="none" xml:space="preserve" clip-path="url(#clipPath8)" x="497.163" y="425.996">Error</text></g><g stroke="#FF9900" fill="#FF9900" transform="translate(-400 -262)"><rect x="524" y="471" width="98" height="40" stroke="none" clip-path="url(#clipPath2)"/><rect x="523" y="470" width="1" height="42" stroke="none" fill="#FFDA00" clip-path="url(#clipPath2)"/><rect x="524" y="470" width="98" height="1" stroke="none" fill="#FFDA00" clip-path="url(#clipPath2)"/><rect x="524" y="511" width="99" height="1" stroke="none" fill="#B26B00" clip-path="url(#clipPath2)"/><rect x="622" y="470" width="1" height="41" stroke="none" fill="#B26B00" clip-path="url(#clipPath2)"/></g><g stroke-linecap="butt" stroke-miterlimit="1.45" font-family="Arial" font-weight="700" font-size="13" transform="translate(-400 -262)"><text stroke="none" xml:space="preserve" clip-path="url(#clipPath9)" x="528.058" y="488.815">OutOfMemory-</text><text stroke="none" xml:space="preserve" clip-path="url(#clipPath9)" x="557.664" y="504.742">Error</text></g><g stroke="#FF9900" fill="#FF9900" transform="translate(-400 -262)"><rect x="403" y="471" width="98" height="40" stroke="none" clip-path="url(#clipPath2)"/><rect x="402" y="470" width="1" height="42" stroke="none" fill="#FFDA00" clip-path="url(#clipPath2)"/><rect x="403" y="470" width="98" height="1" stroke="none" fill="#FFDA00" clip-path="url(#clipPath2)"/><rect x="403" y="511" width="99" height="1" stroke="none" fill="#B26B00" clip-path="url(#clipPath2)"/><rect x="501" y="470" width="1" height="41" stroke="none" fill="#B26B00" clip-path="url(#clipPath2)"/></g><g stroke-linecap="butt" stroke-miterlimit="1.45" font-family="Arial" font-weight="700" font-size="13" transform="translate(-400 -262)"><text stroke="none" xml:space="preserve" clip-path="url(#clipPath10)" x="405.236" y="488.815">StackOverflow-</text><text stroke="none" xml:space="preserve" clip-path="url(#clipPath10)" x="436.663" y="504.742">Error</text></g><g stroke="#FF9900" fill="#FF9900" transform="translate(-400 -262)"><rect x="662" y="471" width="98" height="40" stroke="none" clip-path="url(#clipPath2)"/><rect x="661" y="470" width="1" height="42" stroke="none" fill="#FFDA00" clip-path="url(#clipPath2)"/><rect x="662" y="470" width="98" height="1" stroke="none" fill="#FFDA00" clip-path="url(#clipPath2)"/><rect x="662" y="511" width="99" height="1" stroke="none" fill="#B26B00" clip-path="url(#clipPath2)"/><rect x="760" y="470" width="1" height="41" stroke="none" fill="#B26B00" clip-path="url(#clipPath2)"/></g><g stroke-linecap="butt" stroke-miterlimit="1.45" font-family="Arial" font-weight="700" font-size="13" transform="translate(-400 -262)"><text stroke="none" xml:space="preserve" clip-path="url(#clipPath11)" x="672.155" y="488.815">ExceptionIn-</text><text stroke="none" xml:space="preserve" clip-path="url(#clipPath11)" x="668.896" y="504.742">InitalizerError</text></g><g stroke="#FF9900" fill="#FF9900" transform="translate(-400 -262)"><rect x="792" y="471" width="98" height="40" stroke="none" clip-path="url(#clipPath2)"/><rect x="791" y="470" width="1" height="42" stroke="none" fill="#FFDA00" clip-path="url(#clipPath2)"/><rect x="792" y="470" width="98" height="1" stroke="none" fill="#FFDA00" clip-path="url(#clipPath2)"/><rect x="792" y="511" width="99" height="1" stroke="none" fill="#B26B00" clip-path="url(#clipPath2)"/><rect x="890" y="470" width="1" height="41" stroke="none" fill="#B26B00" clip-path="url(#clipPath2)"/></g><g stroke-linecap="butt" stroke-miterlimit="1.45" font-family="Arial" font-weight="700" font-size="13" transform="translate(-400 -262)"><text stroke="none" xml:space="preserve" clip-path="url(#clipPath12)" x="802.511" y="488.815">NoClassDef-</text><text stroke="none" xml:space="preserve" clip-path="url(#clipPath12)" x="805.411" y="504.742">FoundError</text><path d="M664.957 327.984 708.572 300.071" fill="none" clip-path="url(#clipPath2)"/></g><g stroke="#FFFFFF" stroke-linecap="butt" stroke-miterlimit="1.45" fill="#FFFFFF" transform="translate(-400 -262)"><path d="M721.206 291.985 704.496 295.556 710.964 305.663Z" stroke="none" clip-path="url(#clipPath2)"/><path d="M721.206 291.985 704.496 295.556 710.964 305.663Z" stroke="#000000" fill="none" clip-path="url(#clipPath2)"/><path d="M819.675 327.984 777.057 300.181" stroke="#000000" fill="none" clip-path="url(#clipPath2)"/><path d="M764.494 291.985 774.616 305.752 781.173 295.702Z" stroke="none" clip-path="url(#clipPath2)"/><path d="M764.494 291.985 774.616 305.752 781.173 295.702Z" stroke="#000000" fill="none" clip-path="url(#clipPath2)"/><path d="M638.094 392.035 636.209 370.929" stroke="#000000" fill="none" clip-path="url(#clipPath2)"/><path d="M634.875 355.988 630.322 372.459 642.274 371.391Z" stroke="none" clip-path="url(#clipPath2)"/><path d="M634.875 355.988 630.322 372.459 642.274 371.391Z" stroke="#000000" fill="none" clip-path="url(#clipPath2)"/><path d="M736.287 391.992 682.384 363.088" stroke="#000000" fill="none" clip-path="url(#clipPath2)"/><path d="M669.165 355.999 680.43 368.848 686.101 358.273Z" stroke="none" clip-path="url(#clipPath2)"/><path d="M669.165 355.999 680.43 368.848 686.101 358.273Z" stroke="#000000" fill="none" clip-path="url(#clipPath2)"/><path d="M552.001 391.992 604.41 363.218" stroke="#000000" fill="none" clip-path="url(#clipPath2)"/><path d="M617.559 355.999 600.646 358.44 606.421 368.959Z" stroke="none" clip-path="url(#clipPath2)"/><path d="M617.559 355.999 600.646 358.44 606.421 368.959Z" stroke="#000000" fill="none" clip-path="url(#clipPath2)"/><path d="M557.163 470.779 538.628 446.655" stroke="#000000" fill="none" clip-path="url(#clipPath2)"/><path d="M529.49 434.76 534.48 451.103 543.995 443.792Z" stroke="none" clip-path="url(#clipPath2)"/><path d="M529.49 434.76 534.48 451.103 543.995 443.792Z" stroke="#000000" fill="none" clip-path="url(#clipPath2)"/><path d="M468.953 470.779 487.487 446.655" stroke="#000000" fill="none" clip-path="url(#clipPath2)"/><path d="M496.626 434.76 482.12 443.792 491.636 451.103Z" stroke="none" clip-path="url(#clipPath2)"/><path d="M496.626 434.76 482.12 443.792 491.636 451.103Z" stroke="#000000" fill="none" clip-path="url(#clipPath2)"/><path d="M728.773 470.779 748.956 446.328" stroke="#000000" fill="none" clip-path="url(#clipPath2)"/><path d="M758.505 434.76 743.692 443.28 752.946 450.919Z" stroke="none" clip-path="url(#clipPath2)"/><path d="M758.505 434.76 743.692 443.28 752.946 450.919Z" stroke="#000000" fill="none" clip-path="url(#clipPath2)"/><path d="M823.544 470.779 803.361 446.328" stroke="#000000" fill="none" clip-path="url(#clipPath2)"/><path d="M793.812 434.76 799.37 450.919 808.625 443.28Z" stroke="none" clip-path="url(#clipPath2)"/><path d="M793.812 434.76 799.37 450.919 808.625 443.28Z" stroke="#000000" fill="none" clip-path="url(#clipPath2)"/></g></g></svg>